<?xml version="1.0" encoding="utf-8"?>
<!-- Generator: Adobe Illustrator 24.1.1, SVG Export Plug-In . SVG Version: 6.00 Build 0)  -->
<svg version="1.1" id="圖層_1" xmlns="http://www.w3.org/2000/svg" xmlns:xlink="http://www.w3.org/1999/xlink" x="0px" y="0px"
	 viewBox="0 0 106.0959015 66.0044479" style="enable-background:new 0 0 106.0959015 66.0044479;" xml:space="preserve">
<style type="text/css">
	.st0{fill:#D8AD1E;}
	.st1{fill:#B68824;}
	.st2{fill:#FFFFFF;}
	.st3{fill:#FFD100;}
	.st4{fill:#1A1414;}
</style>
<g>
	<g>
		<polygon class="st0" points="56.7000008,53.2011604 14.3999996,65.5011673 13.8999996,42.7011604 56.5,31.5011654 		"/>
		<polygon class="st1" points="48.5999985,47.2011604 14.3999996,65.5011673 14.1999998,55.601162 41.2000008,33.3011627 		"/>
	</g>
	<g>
		<ellipse cx="73.0936737" cy="33.002224" rx="32.9994011" ry="32.9994011"/>
		<g>
			<path class="st2" d="M54.7000008,48.9011612c-1-6.4000015,2-11.3999977,7.4000015-14.8999977v-0.2000008
				C56.5000038,32.0011635,53.3000031,28.0011654,52.5,23.3011646c-1.4000015-9.000001,5.7999992-16.2999992,16.4000015-18
				c12.5-1.9999998,18.7999954,4.3999996,19.9000015,10.9000006c0.6999969,4.6000004-1,9.5-5.9000015,12.9999981v0.2000008
				c5.5,1.2000008,10.8000031,4.8999996,11.9000015,11.7999973c1.5,9.7000008-5.5999985,17.5-18,19.5
				C63.2999992,62.8011589,55.9000015,56.2011604,54.7000008,48.9011612z M64.1999969,21.0011635
				c0.5999985,3.6000004,4.1999969,5.3999996,8.6999969,6c2.6999969-1.2999992,4.9000015-4.3000011,4.3000031-7.6999989
				c-0.5-3.2999992-2.9000015-6.3000011-7.5-5.500001C65.4000015,14.5011625,63.7000008,17.7011642,64.1999969,21.0011635z
				 M82.3000031,44.101162c-0.6999969-4.7000008-4.5999985-6.9000015-9.8000031-7.5
				c-3.9000015,1.7999992-5.8000031,5.0999985-5.1999969,9c0.5,3.9000015,4.0999985,7,8.6999969,6.2999992
				C80.5,51.2011604,82.9000015,47.9011612,82.3000031,44.101162z"/>
		</g>
	</g>
	<g>
		<polygon class="st3" points="48.5999985,47.2011604 0.6,61.2011604 0,35.3011627 48.4000015,22.6011639 		"/>
		<path class="st4" d="M13.3000002,50.4011612c0.1999998,2.5999985-1,4.2999992-3.5,5
			C7.7000003,55.9011612,6.5,55.3011627,6,53.601162c-0.0999999-0.2999992-0.1999998-0.7000008-0.1999998-1.2000008
			L5.0999999,40.8011627c-0.1999998-2.5999985,1-4.2999992,3.5000005-4.9000015
			c2.1000004-0.5,3.3000002,0.0999985,3.8000002,1.7999992c0.1000004,0.2999992,0.1999998,0.7000008,0.1999998,1.2000008
			l0.1999998,2.5l-2.6999998,0.7000008L10,39.5011635c-0.1000004-0.7999992-0.5-1.2000008-1.1999998-1l0,0
			c-0.6999998,0.2000008-1.0999999,0.7000008-1,1.5999985l0.8000002,11.5c0.1000004,0.9000015,0.5,1.2000008,1.1999998,1
			c0.8000002-0.2000008,1.1000004-0.7000008,1.1000004-1.5999985l-0.1999998-2.5l2.6000004-0.7000008L13.3000002,50.4011612z"/>
		<path class="st4" d="M22.1000004,51.601162l-1.8000011,0.5l-0.7000008-1.4000015c-0.2999992,1.2000008-1,2-1.8999996,2.4000015
			c-1.6000004,0.4000015-2.6000004-0.2000008-3-1.7999992c-0.1000004-0.4000015-0.1999998-0.9000015-0.1999998-1.4000015
			l-0.1000004-1.2000008c-0.1999998-2.5999985,0.6999998-4.2000008,2.5999994-4.7000008
			c0.7999992-0.2000008,1.5-0.2000008,2,0.0999985l-0.2000008-3.4000015c-0.1000004-0.9000015-0.5-1.2000008-1.2000008-1l0,0
			c-0.7000008,0.2000008-1,0.7000008-0.8999996,1.5v0.5L14,42.4011612v-0.5c-0.1999998-2.5999985,1-4.2999992,3.3999996-4.9000015
			c2.1000004-0.5,3.2999992,0.0999985,3.7999992,1.7999992c0.1000004,0.2999992,0.2000008,0.7000008,0.2000008,1.2000008
			L22.1000004,51.601162z M17,49.2011604c0.1000004,0.9000015,0.5,1.2000008,1.2000008,1
			c0.7999992-0.2000008,1.1000004-0.7000008,1-1.5999985l-0.1000004-1.2000008c-0.1000004-0.7999992-0.5-1.2000008-1.2000008-1
			c-0.7999992,0.2000008-1.1000004,0.7000008-1.1000004,1.5999985L17,49.2011604z"/>
		<path class="st4" d="M23.2999992,51.2011604l-1-15.2999992l1.7999992-0.5l0.7000008,1.4000015
			c0.2999992-1.2000008,1-2,1.8999996-2.4000015c1.6000004-0.4000015,2.6000004,0.2000008,3,1.7999992
			c0.1000004,0.4000015,0.2000008,0.9000015,0.2000008,1.4000015l0.7999992,11.5999985l-2.6000004,0.7000008l-0.7999992-11.6000023
			c-0.1000004-0.9000015-0.5-1.2000008-1.2000008-1c-0.7999992,0.2000008-1.1000004,0.7000008-1,1.5999985l0.7999992,11.5999985
			L23.2999992,51.2011604z"/>
		<path class="st4" d="M39.2000008,46.8011627l-1.7999992,0.5l-0.7000008-1.4000015c-0.2999992,1.2000008-1,2-1.9000015,2.4000015
			c-1.5999985,0.4000015-2.5999985-0.2000008-3-1.7999992c-0.1000004-0.4000015-0.2000008-0.9000015-0.2000008-1.4000015
			l-0.1000004-1.2000008c-0.2000008-2.5999985,0.6999989-4.2000008,2.6000004-4.7000008
			c0.7999992-0.2000008,1.5-0.2000008,2,0.0999985l-0.2000008-3.4000015c-0.0999985-0.9000015-0.5-1.2000008-1.2000008-1l0,0
			c-0.7000008,0.2000008-1,0.7000008-0.9000015,1.5v0.5l-2.6000004,0.7000008v-0.5
			c-0.2000008-2.5999985,1.0000019-4.2999992,3.3999996-4.9000015c2.0999985-0.4999981,3.2999992,0.0999985,3.7999992,1.7999992
			c0.0999985,0.2999992,0.2000008,0.7000008,0.2000008,1.2000008L39.2000008,46.8011627z M34.0999985,44.4011612
			c0.0999985,0.9000015,0.5,1.2000008,1.2000008,1c0.7999992-0.2000008,1.0999985-0.7000008,1-1.5999985l-0.0999985-1.2000008
			c-0.0999985-0.7999992-0.5-1.2000008-1.2000008-1c-0.7999992,0.2000008-1.0999985,0.7000008-1.0999985,1.5999985
			L34.0999985,44.4011612z"/>
		<polygon class="st4" points="41.5999985,25.6011639 42.9000015,45.601162 40.2999992,46.3011627 39,26.3011646 		"/>
	</g>
</g>
</svg>
